# xmcd
#
# Track frame offsets:
#	150
#	15825
#	31595
#	45769
#	59754
#	74112
#	91724
#
# Disc length: 1370 seconds
# Revision: 0
# Processed by: cddbd v1.5.2PL0 Copyright (c) Steve Scherf et al.
# Submitted via: dBpowerAMP V12.0
#
DISCID=4a055807
DTITLE=Matt Mason - America's Favorite Pasttime
DYEAR=2012
DGENRE=Country
TTITLE0=America's Favorite Pastime
TTITLE1=We Come Alive
TTITLE2=Liquor
TTITLE3=Mason Jar
TTITLE4=Easy Ain't Easy
TTITLE5=Old Man Jones
TTITLE6=Smoke Ya
EXTD=
EXTT0=
EXTT1=
EXTT2=
EXTT3=
EXTT4=
EXTT5=
EXTT6=
PLAYORDER=
